<?xml version="1.0" standalone="no"?><!DOCTYPE svg PUBLIC "-//W3C//DTD SVG 1.1//EN" "http://www.w3.org/Graphics/SVG/1.1/DTD/svg11.dtd"><svg class="icon" height="512" viewBox="0 0 1024 1024" version="1.1" xmlns="http://www.w3.org/2000/svg"><path d="M798.6076 861.927741 225.381144 861.927741c-13.393032 0-25.637913-5.229095-34.484396-14.727423-8.67866-9.311063-12.954033-21.549805-12.038174-34.458813l34.916231-495.631194c1.566682-22.251793 22.020526-39.681768 46.561455-39.681768l503.323387 0c24.540929 0 44.994774 17.428951 46.561455 39.681768l34.922371 495.637334c0.908696 12.902868-3.365654 25.140587-12.045337 34.45165C824.245514 856.698646 812.000632 861.927741 798.6076 861.927741zM260.335237 303.8411c-10.381441 0-19.634176 6.925736-20.214391 15.127536L205.204615 814.605969c-0.39295 5.519714 1.38658 10.703783 5.010107 14.592346 3.797489 4.074805 9.182127 6.318916 15.165398 6.318916l573.22748 0c5.984295 0 11.367909-2.24411 15.172561-6.318916 3.623527-3.894703 5.403057-9.072633 5.016247-14.592346L783.874037 318.967612c-0.580215-8.201799-9.832949-15.127536-20.214391-15.127536L260.335237 303.840076zM512.164752 701.738365c-5.835915 0-11.006681-3.77907-12.670577-9.388834-2.00568-6.750751-20.459984-32.363082-52.151777-52.79646-4.78498-3.082198-9.942443-6.138814-15.243169-9.278317-32.246425-19.12457-72.385611-42.930765-72.018244-95.148034 0.347924-50.049906 26.759457-87.745437 67.273173-96.031147 27.275203-5.570879 61.527308 4.359284 84.618213 36.818557 22.968108-31.775704 57.471946-41.357943 85.147262-35.722596 40.229237 8.182356 66.453505 45.227064 66.795289 94.367251 0.355087 50.301639-37.753859 73.630974-68.375274 92.368734-6.461155 3.959172-12.766768 7.801686-18.479887 11.787464-30.222325 21.065781-50.501184 47.167253-52.126194 53.196573-1.534959 5.699816-6.693446 9.749038-12.599969 9.826809C512.275269 701.738365 512.223081 701.738365 512.164752 701.738365zM442.810175 463.933261c-3.365654 0-6.757914 0.341784-10.162454 1.037632-27.77867 5.680373-45.89733 33.291221-46.155203 70.335928-0.257873 37.056987 29.906124 54.95052 59.077513 72.250534 5.590322 3.314489 11.026124 6.537903 16.081257 9.795087 21.091364 13.598716 39.127136 30.925337 50.617841 45.801139 12.018731-15.217586 30.640857-32.833803 49.688679-46.104037 6.125511-4.26821 12.863982-8.408507 19.795858-12.644995 28.79686-17.628496 56.001455-34.277688 55.749722-69.6585-0.302899-43.846624-23.780613-64.222697-45.652759-68.672032-22.704095-4.603855-52.493561 6.545066-67.795059 41.899272-2.089591 4.830005-6.847965 7.957229-12.109806 7.963369 0 0-0.00614 0-0.013303 0-5.254677 0-10.006911-3.113921-12.109806-7.930623C487.772202 480.32458 466.112903 463.933261 442.810175 463.933261zM664.378479 396.11262l-26.411533 0 0.00614-10.219759c0.045025-67.576071 0.083911-125.94341-17.300015-166.875658-18.125823-42.692335-54.215786-61.734016-117.013017-61.734016-45.678342 0-77.828576 9.969049-98.287537 30.480198-36.425607 36.515658-36.244482 107.244536-36.037774 189.134615l0.031722 19.215644-26.411533 0-0.031722-19.151176c-0.218988-87.771019-0.412392-163.574473 43.750433-207.853955 25.669636-25.727964 63.933101-38.236859 116.987435-38.236859 72.863495 0 119.095445 25.456788 141.328819 77.821413 19.479657 45.89119 19.440771 106.748233 19.395746 177.219237L664.378479 396.11262z" /></svg>